<?xml version="1.0" encoding="UTF-8"?>
<svg width="301px" height="201px" viewBox="0 0 301 201" version="1.1" xmlns="http://www.w3.org/2000/svg" xmlns:xlink="http://www.w3.org/1999/xlink">
    <title>bp</title>
    <defs>
        <rect id="path-1" x="0" y="0" width="100" height="100" rx="50"></rect>
    </defs>
    <g id="Page-1" stroke="none" stroke-width="1" fill="none" fill-rule="evenodd">
        <g id="bp">
            <polygon id="Path" fill-opacity="0.3" fill="#404142" fill-rule="nonzero" transform="translate(150.843750, 100.378906) rotate(-90.000000) translate(-150.843750, -100.378906) " points="50.84375 -49.621094 250.84375 -49.621094 250.84375 250.378906 50.84375 250.378906"></polygon>
            <g id="Group-3-Copy-3" transform="translate(101.000000, 51.000000)">
                <mask id="mask-2" fill="white">
                    <use xlink:href="#path-1"></use>
                </mask>
                <use id="Mask" fill="#3536B1" fill-rule="nonzero" xlink:href="#path-1"></use>
                <g id="Group" mask="url(#mask-2)" fill="#78CCFF" fill-rule="nonzero">
                    <g transform="translate(18.192121, 16.447853)" id="Combined-Shape">
                        <path d="M35.1446299,4.78407614 C36.0763813,4.12068438 37.4740083,4.12068438 38.4057597,5.00520673 C39.1045732,5.88972907 39.1045732,7.21651259 38.1728218,8.10103493 L38.1728218,8.10103493 L8.8226541,33.0887912 C2.53333244,39.059317 2.53333244,49.0101933 8.8226541,54.9807192 C15.1119758,60.951245 25.5941785,60.951245 31.8835002,54.9807192 L31.8835002,54.9807192 L60.5348544,29.3295712 C61.4666057,28.4450488 62.8642328,28.4450488 63.7959841,29.3295712 C64.7277355,30.2140935 64.7277355,31.5408771 63.5630463,32.4253994 L63.5630463,32.4253994 L34.9116921,58.297678 C30.9517488,62.0568979 25.5941785,64.0470732 20.2366082,64.0470732 C14.8790379,64.0470732 9.52146761,62.0568979 5.32858651,58.0765474 C-2.82423786,50.3369769 -2.82423786,37.7325335 5.32858651,29.9929629 L5.32858651,29.9929629 Z M22.1215199,31.9846747 C28.5925558,31.9846747 33.6769412,37.0622237 33.6769412,43.5245589 C33.6769412,49.9868941 28.5925558,55.0644431 22.1215199,55.0644431 C15.650484,55.0644431 10.5660987,49.9868941 10.5660987,43.5245589 C10.5660987,37.0622237 15.650484,31.9846747 22.1215199,31.9846747 Z M58.2513222,5.5291916 C59.2134025,4.65195153 60.656523,4.65195153 61.6186033,5.5291916 C62.5806836,6.40643166 62.5806836,7.72229176 61.6186033,8.59953183 L61.6186033,8.59953183 L35.1613944,32.7236337 C34.6803542,33.1622537 33.958794,33.3815637 33.4777538,33.3815637 C32.9967137,33.3815637 32.2751534,33.1622537 31.7941133,32.7236337 C30.8320329,31.8463936 30.8320329,30.5305335 31.7941133,29.6532935 L31.7941133,29.6532935 Z" transform="translate(31.841040, 34.179138) rotate(-87.000000) translate(-31.841040, -34.179138) "></path>
                    </g>
                </g>
            </g>
        </g>
    </g>
</svg>