<?xml version="1.0" encoding="UTF-8"?>
<svg width="301px" height="201px" viewBox="0 0 301 201" version="1.1" xmlns="http://www.w3.org/2000/svg" xmlns:xlink="http://www.w3.org/1999/xlink">
    <title>novacard</title>
    <defs>
        <rect id="path-1" x="0" y="0" width="102" height="102" rx="51"></rect>
        <rect id="path-3" x="0" y="0" width="102" height="102" rx="51"></rect>
    </defs>
    <g id="Page-1" stroke="none" stroke-width="1" fill="none" fill-rule="evenodd">
        <g id="novacard">
            <polygon id="Path" fill-opacity="0.3" fill="#404142" fill-rule="nonzero" transform="translate(150.843750, 100.378906) rotate(-90.000000) translate(-150.843750, -100.378906) " points="50.84375 -49.621094 250.84375 -49.621094 250.84375 250.378906 50.84375 250.378906"></polygon>
            <g id="Group" transform="translate(100.000000, 50.000000)">
                <g id="a-link" fill="#121111" fill-rule="nonzero">
                    <rect id="a" x="0" y="0" width="102" height="102" rx="51"></rect>
                </g>
                <g id="Clipped">
                    <g>
                        <mask id="mask-2" fill="white">
                            <use xlink:href="#path-1"></use>
                        </mask>
                        <use id="a" fill="#FFE99E" xlink:href="#path-1"></use>
                        <path d="M78.7444044,51.4997218 C81.7700423,53.0909081 83.5,54.9703939 83.5,57 C83.5,59.0296061 81.7700423,60.9090919 78.7444044,62.5002782 C73.0044245,59.4810601 62.601238,57.5 50.5,57.5 C38.398762,57.5 27.9955755,59.4810601 22.2555956,62.4997218 C19.2299577,60.9090919 17.5,59.0296061 17.5,57 C17.5,54.9703939 19.2299577,53.0909081 22.2555956,51.4997218 C27.9955755,54.5189399 38.398762,56.5 50.5,56.5 C62.512,56.5 72.8509,54.54805 78.61666,51.56689 L78.7444044,51.4997218 Z" id="Path" fill="#121111" fill-rule="nonzero" mask="url(#mask-2)"></path>
                    </g>
                    <g>
                        <mask id="mask-4" fill="white">
                            <use xlink:href="#path-3"></use>
                        </mask>
                        <g id="a"></g>
                        <path d="M50.5,35.5 C68.98,35.5 83.5,40.12 83.5,46 C83.5,48.0296061 81.7700423,49.9090919 78.7444044,51.5002782 C73.0044245,48.4810601 62.601238,46.5 50.5,46.5 C38.398762,46.5 27.9955755,48.4810601 22.2555956,51.4997218 C19.2299577,49.9090919 17.5,48.0296061 17.5,46 C17.5,40.12 32.02,35.5 50.5,35.5 Z" id="Path" fill="#121111" fill-rule="nonzero" mask="url(#mask-4)"></path>
                    </g>
                </g>
            </g>
        </g>
    </g>
</svg>