<?xml version="1.0" encoding="UTF-8"?>
<svg width="301px" height="201px" viewBox="0 0 301 201" version="1.1" xmlns="http://www.w3.org/2000/svg" xmlns:xlink="http://www.w3.org/1999/xlink">
    <title>Oumuamua</title>
    <defs>
        <rect id="path-1" x="0" y="0" width="104" height="104" rx="52"></rect>
    </defs>
    <g id="Page-1" stroke="none" stroke-width="1" fill="none" fill-rule="evenodd">
        <g id="Oumuamua">
            <polygon id="Path" fill-opacity="0.3" fill="#404142" fill-rule="nonzero" transform="translate(150.843750, 100.378906) rotate(-90.000000) translate(-150.843750, -100.378906) " points="50.84375 -49.621094 250.84375 -49.621094 250.84375 250.378906 50.84375 250.378906"></polygon>
            <g id="Group-10" transform="translate(99.000000, 48.000000)">
                <g id="Group-2">
                    <mask id="mask-2" fill="white">
                        <use xlink:href="#path-1"></use>
                    </mask>
                    <use id="Mask" fill="#FF7D2B" fill-rule="nonzero" xlink:href="#path-1"></use>
                </g>
                <g id="Group" transform="translate(16.406098, 13.363881)" fill="#61211B" fill-rule="nonzero">
                    <path d="M39.3143672,5.3721861 C40.3566662,4.62724311 41.9201148,4.62724311 42.9624139,5.62050042 C43.7441382,6.61375774 43.7441382,8.10364372 42.7018391,9.09690104 L42.7018391,9.09690104 L9.86941855,37.1564203 C2.83389986,43.8609072 2.83389986,55.035052 9.86941855,61.7395389 C16.9049373,68.4440258 28.6308017,68.4440258 35.6663204,61.7395389 L35.6663204,61.7395389 L67.7170167,32.9350767 C68.7593158,31.9418193 70.3227644,31.9418193 71.3650635,32.9350767 C72.4073625,33.928334 72.4073625,35.41822 71.1044887,36.4114773 L71.1044887,36.4114773 L39.0537924,65.4642538 C34.6240214,69.6855974 28.6308017,71.9204264 22.6375821,71.9204264 C16.6443625,71.9204264 10.6511429,69.6855974 5.96079706,65.2159395 C-3.15931977,56.524938 -3.15931977,42.3710212 5.96079706,33.6800197 L5.96079706,33.6800197 Z M24.7461293,35.916574 C31.9849218,35.916574 37.6725444,41.6183098 37.6725444,48.8750645 C37.6725444,56.1318192 31.9849218,61.8335551 24.7461293,61.8335551 C17.5073369,61.8335551 11.8197142,56.1318192 11.8197142,48.8750645 C11.8197142,41.6183098 17.5073369,35.916574 24.7461293,35.916574 Z M65.1625546,6.20889913 C66.2387811,5.22381931 67.8531207,5.22381931 68.9293471,6.20889913 C70.0055735,7.19397896 70.0055735,8.6715987 68.9293471,9.65667852 L68.9293471,9.65667852 L39.3331207,36.7463737 C38.7950075,37.2389136 37.9878377,37.4851836 37.4497245,37.4851836 C36.9116112,37.4851836 36.1044414,37.2389136 35.5663282,36.7463737 C34.4901018,35.7612939 34.4901018,34.2836742 35.5663282,33.2985943 L35.5663282,33.2985943 Z" id="Combined-Shape" transform="translate(35.618823, 38.380804) rotate(-87.000000) translate(-35.618823, -38.380804) "></path>
                </g>
            </g>
        </g>
    </g>
</svg>