<?xml version="1.0" encoding="UTF-8"?>
<svg width="147px" height="171px" viewBox="0 0 147 171" version="1.1" xmlns="http://www.w3.org/2000/svg" xmlns:xlink="http://www.w3.org/1999/xlink">
    <title>uniswap</title>
    <g id="web" stroke="none" stroke-width="1" fill="none" fill-rule="evenodd">
        <g id="10" transform="translate(-265.000000, -330.000000)" fill="#76FFBA" fill-rule="nonzero">
            <g id="uniswap" transform="translate(265.000000, 330.000000)">
                <path d="M75.9722118,132.979761 C78.1835079,133.243559 80.3495002,133.799846 82.4121527,134.633985 C84.5737035,135.491547 86.5688445,136.715672 88.3081527,138.251612 C90.0299908,139.862504 91.4213781,141.789602 92.4053278,143.92604 C93.2939325,145.926334 93.9569068,148.017975 94.3818144,150.162904 C94.5765589,151.149583 94.7303046,152.2198 94.8818465,153.329839 L94.9576134,153.887975 C94.9955846,154.1685 95.0338222,154.451058 95.0729323,154.734967 L95.1524956,155.304383 C95.9498401,160.917363 97.2409683,166.876535 103.636805,167.98607 C104.077406,168.070977 104.522153,168.13334 104.968972,168.173451 L106.351476,168.206536 C107.301966,168.139489 108.246238,168.004808 109.177482,167.803959 C111.106296,167.353366 112.986253,166.71627 114.790111,165.901455 C114.007511,166.519227 113.224615,167.175354 112.364141,167.748916 C111.49804,168.315744 110.590781,168.816988 109.649173,169.248843 C107.689269,170.198632 105.534232,170.683773 103.353435,170.666206 C97.4464789,170.555827 93.2714287,166.188383 90.8288762,161.252646 C89.1632977,157.888862 88.0141225,154.254839 86.037636,151.050915 C83.2116304,146.468275 78.3762708,142.778916 72.7133038,143.462857 C70.4039977,143.749492 68.2385975,144.780674 66.9561761,146.771598 C63.5806036,151.971717 68.4275112,159.256452 74.6065854,158.22527 C75.132168,158.145926 75.6464987,158.005097 76.1389177,157.806297 C76.6295601,157.598714 77.0876312,157.321742 77.4989181,156.984455 C78.3620579,156.27065 79.012892,155.33638 79.3809478,154.282361 C79.7869048,153.183253 79.8772162,151.993969 79.6421105,150.846845 C79.3883504,149.647899 78.6759269,148.594172 77.6543721,147.907596 C78.8420406,148.459785 79.767362,149.44822 80.2360929,150.664734 C80.7219976,151.916674 80.846953,153.278115 80.5967461,154.59681 C80.3542379,155.970548 79.7445621,157.254109 78.8313809,158.313398 C78.3463645,158.85856 77.7855457,159.33199 77.1658024,159.719634 C76.5516851,160.102887 75.8940406,160.412066 75.2061937,160.64073 C73.8115493,161.11416 72.3271857,161.266993 70.8647337,161.087224 C68.8112604,160.796783 66.8741556,159.962352 65.257434,158.672057 C63.3475706,157.172129 61.926277,155.208726 60.1997012,153.521418 C58.2202537,151.458469 55.8851866,149.764426 53.3043541,148.519806 C51.524776,147.743345 49.6622891,147.169783 47.7527218,146.810245 C46.7921641,146.611739 45.8206507,146.468275 44.8491372,146.347063 C44.4049829,146.302852 42.228627,145.822981 41.9233449,146.104346 C44.926124,143.358334 48.1998371,140.919744 51.6944429,138.825174 C55.2826173,136.71011 59.1352115,135.072867 63.1533272,133.955607 C67.3191982,132.790916 71.6763516,132.459193 75.9722118,132.979761 Z M110.9368,99.8050682 C120.148099,106.18137 134.756695,110.5166 139.697203,122.41109 C145.345495,135.960471 138.882954,153.03699 125.272393,158.690058 C132.170191,147.106788 125.907074,137.572292 119.402877,128.00713 L118.652058,126.903203 C112.898847,118.436906 107.345839,109.884026 110.9368,99.8050682 Z M60.8886677,154.697856 C62.1112132,156.1294 63.4461664,157.464097 64.8813672,158.690058 C63.3714256,157.544417 62.0281679,156.201311 60.8886677,154.697856 Z M-3.94351218e-13,0 L23.6279039,25.3800747 L40.4869283,44.0401504 L48.8970938,53.392598 L50.0928657,54.7355136 L50.0928657,54.7355136 L52.4844979,57.4098103 C54.0789518,59.1960164 55.6734612,61.000196 57.2679706,62.890093 L57.725446,63.4489262 L57.8260489,64.3147617 C57.9620712,65.4890827 57.894143,66.6779381 57.6251407,67.828826 C57.3155933,69.0194611 56.7750758,70.1377207 56.0345431,71.1195349 C54.6561642,72.9105301 52.8316202,74.3073165 50.7442586,75.1698892 C48.8664367,75.9799601 46.8781898,76.5034955 44.8455942,76.7229947 C44.4044891,76.779056 43.9470138,76.8125741 43.5062063,76.8460923 C42.2186081,76.8950347 40.980716,77.3553898 39.9734963,78.1595283 C38.9662766,78.9636667 38.2427095,80.0697649 37.9087554,81.3155715 C37.7557676,81.9352119 37.6420684,82.5640476 37.5682533,83.1982224 C37.3673451,84.8409073 37.3340092,86.5503318 37.1554241,88.6174808 C36.7181884,92.1351045 35.7017418,95.5557333 34.1474565,98.7408453 C32.1273619,102.997944 29.8614153,106.428361 30.3861577,111.333576 C30.7320174,114.518095 32.361606,116.65228 34.5269498,118.853502 C35.4546843,119.803485 36.6553552,120.628703 37.9208187,121.466856 L38.3223497,121.732126 C38.5239494,121.865137 38.7266181,121.998832 38.9295366,122.133752 L39.3354638,122.405388 C42.9874361,124.867715 46.5433502,127.844309 45.2247898,134.496382 C44.047319,140.379555 34.3037185,146.552823 20.6089236,148.709552 C21.9706346,148.502807 18.8620641,143.256775 18.6668111,142.921594 C17.1991396,140.619818 15.5918741,138.452115 14.4255054,135.954569 C12.1374439,131.110755 11.0771249,125.507295 12.0146667,120.199863 C12.7700307,115.927566 15.3627207,112.419692 18.0757635,109.096722 L18.7032053,108.332902 C19.3312205,107.571836 19.9586114,106.818243 20.5642773,106.065001 C24.6491128,100.98656 28.9351541,94.3327665 29.8837384,87.7403737 C30.1069697,86.1424785 30.2632316,84.1423658 30.6204017,82.1535247 C30.9609039,79.9499302 31.6505399,77.8151518 32.6628195,75.8292768 C33.3539436,74.5268158 34.2638345,73.3530881 35.3529057,72.3597057 C35.9205085,71.8323142 36.2949418,71.12962 36.4163797,70.3637456 C36.5378175,69.5978713 36.3991164,68.8136064 36.0225996,68.1361249 L14.1911125,28.8271324 L45.548624,67.5663168 C45.9057942,68.0151037 46.3570191,68.3799471 46.8707487,68.6344475 C47.3844784,68.8892446 47.9479142,69.0274698 48.5208746,69.0399279 C49.093835,69.0520894 49.6626284,68.9378904 50.1867755,68.7056365 C50.7109227,68.4730859 51.1773273,68.1281162 51.5532488,67.6947535 C51.9506006,67.2311355 52.1759154,66.6444199 52.1910951,66.0336781 C52.2062749,65.4229363 52.0107242,64.825839 51.6371838,64.3426441 C49.5891109,61.7225943 47.4237671,59.0518224 45.3253927,56.4261369 L37.4343145,46.6492252 L21.5964989,27.1287422 L-3.94351218e-13,0 Z M103.049749,94.8148148 C104.98986,96.8453261 106.402712,99.3257076 107.163021,102.036228 C107.923331,104.747045 108.007348,107.604449 107.408244,110.355704 C106.727201,113.268413 105.257052,115.933738 103.161079,118.056424 C101.086481,120.112506 98.5846728,121.680956 95.8358606,122.648489 C93.2123318,123.574098 90.4768792,124.139335 87.7034259,124.328738 C85.0315056,124.552633 82.4486493,124.614181 79.9103251,124.765526 C74.7784568,124.981987 69.7101209,125.988768 64.8813672,127.750487 C67.0049501,126.140113 69.3268488,124.8131 71.7891718,123.802155 C74.2802921,122.798942 76.8646328,122.048464 79.5041932,121.562022 C84.7420476,120.5597 89.9243854,120.313208 94.2772405,118.54911 C96.4278394,117.704377 98.4068417,116.470431 100.116277,114.908819 C101.770789,113.362372 103.037576,111.443064 103.812433,109.308485 C104.605994,107.056458 104.928108,104.663493 104.75859,102.280341 C104.562055,99.7199759 103.985811,97.203914 103.049749,94.8148148 Z M92.0513256,69.8635478 C101.058598,79.6111167 119.853564,74.6677955 134.277166,83.7019473 C150.46603,93.8341875 148.101298,113.518998 142.602557,120.764133 C143.090795,109.027529 131.55819,104.101428 119.363117,99.0832725 L117.769631,98.4276412 C103.943049,92.7311445 89.9009832,86.5335063 92.0513256,69.8635478 Z M66.8172462,77.7395419 C68.1296666,78.4396564 69.2275594,79.5150713 69.9852274,80.8423085 C73.506787,87.3668775 65.6311039,89.389059 61.9353678,89.761318 C56.3347208,90.3343049 55.1752856,86.9374415 56.2694046,82.6698448 C56.6282083,81.1418797 57.425066,79.7671977 58.5514077,78.7322326 C59.6780397,77.6972674 61.0798707,77.0522009 62.5667578,76.8843194 C64.0318729,76.7428975 65.5051162,77.0391232 66.8172462,77.7395419 Z M64.1008693,32.7326459 C68.3551144,34.3963804 72.2439877,36.8846126 75.5479132,40.0561434 C77.7048711,42.0939528 79.7298482,44.2694242 81.6102051,46.5687029 C95.6089731,43.7924713 106.962249,46.2577108 115.686494,51.0437478 L115.884906,51.143678 C118.66179,52.6609072 121.264073,54.4820539 123.644722,56.5738079 C124.025085,56.9069086 124.399863,57.2400092 124.74701,57.5787107 C126.605321,59.298748 128.334885,61.1543838 129.92218,63.1308792 L130.043285,63.2918287 C135.196409,69.8654076 137.742548,76.700161 137.748133,80.8421053 L137.714918,80.7922876 C137.210805,79.8484042 136.635851,78.944316 135.995642,78.0882768 C134.111758,75.5175064 131.409828,73.6751356 128.34047,72.8692089 C126.297268,72.3380166 124.207917,72.0069794 122.101518,71.8811086 C119.968663,71.7254651 117.791717,71.6367366 115.592726,71.520004 C111.183866,71.2756319 106.670069,70.8204926 102.260916,69.5547102 C101.158627,69.2381172 100.056339,68.893815 98.9928513,68.4775866 C98.4417071,68.2777262 97.9290696,68.0610634 97.3835103,67.8278929 C96.8379511,67.5947225 96.281222,67.328242 95.7300778,67.0449591 C93.6568939,65.9009205 91.7365607,64.496297 90.0149332,62.8643987 C86.6198852,59.6828455 83.9526413,56.0738622 81.2795186,52.5760108 C78.7595405,49.0648942 76.0552598,45.6917345 73.1778463,42.4712703 C70.3392334,39.3162473 66.9835738,36.6759089 63.2575453,34.6649243 C59.3995361,32.7072948 55.2090768,31.5016474 50.9069189,31.1116544 C55.3701578,30.623205 59.8848369,31.1779797 64.1008693,32.7326459 Z M51.17477,34.9317739 C54.8502959,35.4559188 58.5993322,36.8939876 61.0154989,39.6366475 C63.4319681,42.3793074 64.3222621,45.9468074 65.0198558,49.3417627 C65.5870665,51.9728458 66.0353899,54.6542419 67.0902507,57.1459279 C67.6005892,58.361139 68.3493074,59.4257065 68.9733905,60.5740307 C69.4894767,61.5273174 70.4308953,62.3858969 70.7939102,63.4057745 C70.8589504,63.5522747 70.8831514,63.7129809 70.8640931,63.8716153 C70.8453374,64.0305458 70.7839273,64.1811893 70.6862158,64.309044 C69.4044707,65.7027189 65.9446362,64.1527772 64.6399002,63.5285979 C62.3846701,62.4299949 60.3647947,60.9161603 58.690086,59.0690749 C53.4548061,53.3552742 50.7494375,45.1329178 50.9140043,37.6466135 C50.9503058,36.7377208 51.0374294,35.8314918 51.17477,34.9317739 Z" id="Combined-Shape"></path>
            </g>
        </g>
    </g>
</svg>